<svg width="2655" height="990" xmlns="http://www.w3.org/2000/svg" xmlns:xlink="http://www.w3.org/1999/xlink" xml:space="preserve" overflow="hidden"><g transform="translate(1 -779)"><text font-family="Calibri,Calibri_MSFontService,sans-serif" font-weight="400" font-size="55" transform="matrix(1 0 0 1 42.1667 953)">.ohm</text><text font-family="Calibri,Calibri_MSFontService,sans-serif" font-weight="400" font-size="55" transform="matrix(1 0 0 1 84.8258 1186)">.</text><text font-family="Calibri,Calibri_MSFontService,sans-serif" font-weight="400" font-size="55" transform="matrix(1 0 0 1 98.5758 1186)">ivs</text><text font-family="Calibri,Calibri_MSFontService,sans-serif" font-weight="400" font-size="55" transform="matrix(1 0 0 1 56.432 1403)">.</text><text font-family="Calibri,Calibri_MSFontService,sans-serif" font-weight="400" font-size="55" transform="matrix(1 0 0 1 68.3487 1403)">wav</text><rect x="583.5" y="1515.5" width="366" height="185" stroke="#000000" stroke-width="4.58333" stroke-miterlimit="8" fill="#FFFFFF"/><text font-family="Calibri,Calibri_MSFontService,sans-serif" font-weight="400" font-size="55" transform="matrix(1 0 0 1 695.379 1592)">Binary</text><text font-family="Calibri,Calibri_MSFontService,sans-serif" font-weight="400" font-size="55" transform="matrix(1 0 0 1 618.195 1658)">packetization</text><text font-family="Calibri,Calibri_MSFontService,sans-serif" font-weight="400" font-size="55" transform="matrix(1 0 0 1 1135.51 1180)">.</text><text font-family="Calibri,Calibri_MSFontService,sans-serif" font-weight="400" font-size="55" transform="matrix(1 0 0 1 1149.26 1180)">hjif</text><rect x="1024" y="1212" width="312" height="124" fill="#EDEDED"/><text font-family="Calibri,Calibri_MSFontService,sans-serif" font-weight="400" font-size="50" transform="matrix(1 0 0 1 1057.19 1261)">Interchange </text><text font-family="Calibri,Calibri_MSFontService,sans-serif" font-weight="400" font-size="50" transform="matrix(1 0 0 1 1072.08 1322)">file format</text><path d="M0.051373-2.29109 114.332 0.271426 114.23 4.85361-0.051373 2.29109ZM110.007-11.2868 137.192 3.07625 109.39 16.2063Z" transform="matrix(1 0 0 -1 191.5 1386.58)"/><rect x="1499.5" y="1166.5" width="290" height="217" stroke="#000000" stroke-width="4.58333" stroke-miterlimit="8" stroke-dasharray="4.58333 4.58333" fill="#FFFFFF"/><text font-family="Calibri,Calibri_MSFontService,sans-serif" font-weight="400" font-size="55" transform="matrix(1 0 0 1 1552.94 1245)">Wavelet</text><text font-family="Calibri,Calibri_MSFontService,sans-serif" font-weight="400" font-size="55" transform="matrix(1 0 0 1 1541.9 1339)">decoding</text><rect x="2048.5" y="1222.5" width="332" height="104" stroke="#000000" stroke-width="4.58333" stroke-miterlimit="8" fill="#FFFFFF"/><text font-family="Calibri,Calibri_MSFontService,sans-serif" font-weight="400" font-size="55" transform="matrix(1 0 0 1 2087.66 1292)">Synthesizer</text><path d="M3.19207e-06-2.29167 236.177-2.29134 236.177 2.292-3.19207e-06 2.29167ZM231.594-13.7497 259.094 0.000360892 231.594 13.7503Z" transform="matrix(1 0 0 -1 1789.5 1274.5)"/><text font-family="Calibri,Calibri_MSFontService,sans-serif" font-weight="400" font-size="55" transform="matrix(1 0 0 1 2519.68 1292)">.</text><text font-family="Calibri,Calibri_MSFontService,sans-serif" font-weight="400" font-size="55" transform="matrix(1 0 0 1 2531.6 1292)">wav</text><path d="M2380.5 1272.21 2455.25 1272.21 2455.25 1276.79 2380.5 1276.79ZM2450.66 1260.75 2478.16 1274.5 2450.66 1288.25Z"/><rect x="233.5" y="800.5" width="745" height="965" stroke="#44546A" stroke-width="6.875" stroke-miterlimit="8" stroke-dasharray="27.5 20.625" fill="none"/><rect x="1378.5" y="800.5" width="532" height="965" stroke="#44546A" stroke-width="6.875" stroke-miterlimit="8" stroke-dasharray="27.5 20.625" fill="none"/><rect x="233.5" y="800.5" width="390" height="73.9999" stroke="#000000" stroke-width="4.58333" stroke-miterlimit="8"/><text fill="#FFFFFF" font-family="Calibri,Calibri_MSFontService,sans-serif" font-weight="400" font-size="64" transform="matrix(1 0 0 1 320.798 859)">Encoder</text><rect x="1377.5" y="800.5" width="390" height="73.9999" stroke="#000000" stroke-width="4.58333" stroke-miterlimit="8"/><text fill="#FFFFFF" font-family="Calibri,Calibri_MSFontService,sans-serif" font-weight="400" font-size="64" transform="matrix(1 0 0 1 1461.76 859)">Decoder</text><rect x="2006.5" y="800.5" width="411" height="583" stroke="#44546A" stroke-width="6.875" stroke-miterlimit="8" stroke-dasharray="27.5 20.625" fill="none"/><rect x="2007.5" y="800.5" width="390" height="73.9999" stroke="#000000" stroke-width="4.58333" stroke-miterlimit="8"/><text fill="#FFFFFF" font-family="Calibri,Calibri_MSFontService,sans-serif" font-weight="400" font-size="64" transform="matrix(1 0 0 1 2081.42 859)">Renderer</text><text font-family="Calibri,Calibri_MSFontService,sans-serif" font-weight="400" font-size="55" transform="matrix(1 0 0 1 33.5841 1292)">.ahap</text><path d="M1642.21 1515.06 1642.21 1406.42 1646.79 1406.42 1646.79 1515.06ZM1630.75 1411 1644.5 1383.5 1658.25 1411Z"/><rect x="1024" y="1555" width="312" height="105" fill="#EDEDED"/><text font-family="Calibri,Calibri_MSFontService,sans-serif" font-weight="400" font-size="50" transform="matrix(1 0 0 1 1124.79 1594)">MIHS </text><text font-family="Calibri,Calibri_MSFontService,sans-serif" font-weight="400" font-size="50" transform="matrix(1 0 0 1 1106.46 1655)">Stream</text><text font-family="Calibri,Calibri_MSFontService,sans-serif" font-weight="400" font-size="55" transform="matrix(1 0 0 1 1108.8 1715)">.</text><text font-family="Calibri,Calibri_MSFontService,sans-serif" font-weight="400" font-size="55" transform="matrix(1 0 0 1 1122.55 1715)">hmpg</text><text font-family="Calibri,Calibri_MSFontService,sans-serif" font-weight="400" font-size="55" transform="matrix(1 0 0 1 2155.9 1516)">.</text><text font-family="Calibri,Calibri_MSFontService,sans-serif" font-weight="400" font-size="55" transform="matrix(1 0 0 1 2169.65 1516)">hjif</text><rect x="2056" y="1544" width="312" height="124" fill="#EDEDED"/><text font-family="Calibri,Calibri_MSFontService,sans-serif" font-weight="400" font-size="50" transform="matrix(1 0 0 1 2089.62 1593)">Interchange </text><text font-family="Calibri,Calibri_MSFontService,sans-serif" font-weight="400" font-size="50" transform="matrix(1 0 0 1 2104.51 1654)">file format</text><path d="M0.0024782-2.29167 173.652-2.10388 173.647 2.47945-0.0024782 2.29167ZM169.081-13.5672 196.566 0.212566 169.051 13.9328Z" transform="matrix(1 0 0 -1 1860.5 1606.71)"/><text font-family="Calibri,Calibri_MSFontService,sans-serif" font-weight="400" font-size="50" transform="matrix(1 0 0 1 254.44 980)">Metadata</text><rect x="328.5" y="1072.5" width="312" height="405" stroke="#000000" stroke-width="4.58333" stroke-miterlimit="8" fill="#FFFFFF"/><text font-family="Calibri,Calibri_MSFontService,sans-serif" font-weight="400" font-size="55" transform="matrix(1 0 0 1 406.853 1292)">Coding</text><rect x="1428.5" y="1514.5" width="432" height="184" stroke="#000000" stroke-width="4.58333" stroke-miterlimit="8" fill="#FFFFFF"/><text font-family="Calibri,Calibri_MSFontService,sans-serif" font-weight="400" font-size="55" transform="matrix(1 0 0 1 1573.33 1591)">Binary</text><text font-family="Calibri,Calibri_MSFontService,sans-serif" font-weight="400" font-size="55" transform="matrix(1 0 0 1 1468.07 1657)">depacketization</text><path d="M191.505 1272.21 305.78 1272.45 305.771 1277.03 191.495 1276.79ZM301.221 1260.98 328.692 1274.79 301.163 1288.48Z"/><path d="M0.051373-2.29109 114.332 0.271426 114.23 4.85361-0.051373 2.29109ZM110.007-11.2868 137.192 3.07625 109.39 16.2063Z" transform="matrix(1 0 0 -1 191.5 1169.58)"/><path d="M191.5 934.208 486.653 934.208 486.653 1049.97 482.069 1049.97 482.069 936.5 484.361 938.792 191.5 938.792ZM498.111 1045.39 484.361 1072.89 470.611 1045.39Z"/><path d="M640.5 1272.21 1001.29 1272.21 1001.29 1276.79 640.5 1276.79ZM996.71 1260.75 1024.21 1274.5 996.71 1288.25Z"/><path d="M640.5 1272.21 768.781 1272.21 768.781 1492.59 764.197 1492.59 764.197 1274.5 766.489 1276.79 640.5 1276.79ZM780.239 1488.01 766.489 1515.51 752.739 1488.01Z"/><path d="M949.5 1606.21 1001.74 1606.21 1001.74 1610.79 949.5 1610.79ZM997.154 1594.75 1024.65 1608.5 997.154 1622.25Z"/><path d="M0.0298014-2.29147 69.7154-1.38519 69.6558 3.19776-0.0298014 2.29147ZM65.2814-12.9022 92.6003 1.2043 64.9238 14.5955Z" transform="matrix(1 0 0 -1 1336.5 1607.7)"/><path d="M0.00408075-2.29166 140.236-2.04195 140.228 2.54137-0.00408075 2.29166ZM135.674-13.5084 163.149 0.290518 135.625 13.9915Z" transform="matrix(1 0 0 -1 1336.5 1274.79)"/></g></svg>