<svg width="3622" height="2214" xmlns="http://www.w3.org/2000/svg" xmlns:xlink="http://www.w3.org/1999/xlink" xml:space="preserve" overflow="hidden"><g transform="translate(-278 -117)"><rect x="349" y="231" width="515" height="135" fill="#7F7F7F"/><text fill="#FFFFFF" font-family="Calibri,Calibri_MSFontService,sans-serif" font-weight="400" font-size="73" transform="matrix(1 0 0 1 462.116 324)">Metadata</text><rect x="349" y="414" width="515" height="135" fill="#7F7F7F"/><text fill="#FFFFFF" font-family="Calibri,Calibri_MSFontService,sans-serif" font-weight="400" font-size="73" transform="matrix(1 0 0 1 496.835 506)">Avatars</text><rect x="349" y="596" width="515" height="136" fill="#7F7F7F"/><text fill="#FFFFFF" font-family="Calibri,Calibri_MSFontService,sans-serif" font-weight="400" font-size="73" transform="matrix(1 0 0 1 418.574 689)">Perception 1</text><rect x="349" y="993" width="515" height="136" fill="#7F7F7F"/><text fill="#FFFFFF" font-family="Calibri,Calibri_MSFontService,sans-serif" font-weight="400" font-size="73" transform="matrix(1 0 0 1 413.418 1086)">Perception N</text><path d="M606.5 732.5 606.5 994.094" stroke="#000000" stroke-width="6.875" stroke-miterlimit="8" stroke-dasharray="6.875 6.875" fill="none" fill-rule="evenodd"/><rect x="1035" y="596" width="609" height="136" fill="#595959"/><text fill="#FFFFFF" font-family="Calibri,Calibri_MSFontService,sans-serif" font-weight="400" font-size="73" transform="matrix(1 0 0 1 1195.2 689)">Metadata</text><rect x="1035" y="1186" width="609" height="135" fill="#595959"/><text fill="#FFFFFF" font-family="Calibri,Calibri_MSFontService,sans-serif" font-weight="400" font-size="73" transform="matrix(1 0 0 1 1087.65 1278)">Haptic Channel 1</text><rect x="1035" y="1581" width="609" height="135" fill="#595959"/><text fill="#FFFFFF" font-family="Calibri,Calibri_MSFontService,sans-serif" font-weight="400" font-size="73" transform="matrix(1 0 0 1 1082.5 1674)">Haptic Channel N </text><path d="M1340.5 1321.5 1340.5 1581.38" stroke="#000000" stroke-width="6.875" stroke-miterlimit="8" stroke-dasharray="6.875 6.875" fill="none" fill-rule="evenodd"/><path d="M864.5 662.208 869.083 662.208 869.083 666.792 864.5 666.792ZM873.667 662.208 878.25 662.208 878.25 666.792 873.667 666.792ZM882.833 662.208 887.417 662.208 887.417 666.792 882.833 666.792ZM892 662.208 896.583 662.208 896.583 666.792 892 666.792ZM901.167 662.208 905.75 662.208 905.75 666.792 901.167 666.792ZM910.333 662.208 914.917 662.208 914.917 666.792 910.333 666.792ZM919.5 662.208 924.083 662.208 924.083 666.792 919.5 666.792ZM928.667 662.208 933.25 662.208 933.25 666.792 928.667 666.792ZM937.833 662.208 942.417 662.208 942.417 666.792 937.833 666.792ZM947 662.208 951.583 662.208 951.583 666.792 947 666.792ZM956.167 662.208 960.75 662.208 960.75 666.792 956.167 666.792ZM965.333 662.208 969.917 662.208 969.917 666.792 965.333 666.792ZM974.5 662.208 979.083 662.208 979.083 666.792 974.5 666.792ZM983.667 662.208 988.25 662.209 988.25 666.792 983.667 666.792ZM992.833 662.209 997.417 662.209 997.417 666.792 992.833 666.792ZM1002 662.209 1006.58 662.209 1006.58 666.792 1002 666.792ZM1011.17 662.209 1012.6 662.209 1012.6 666.792 1011.17 666.792ZM1008.02 650.75 1035.52 664.5 1008.02 678.25Z"/><rect x="1804" y="1186" width="531" height="135" fill="#404040"/><text fill="#FFFFFF" font-family="Calibri,Calibri_MSFontService,sans-serif" font-weight="400" font-size="73" transform="matrix(1 0 0 1 1924.88 1278)">Metadata</text><rect x="1804" y="1368" width="531" height="136" fill="#404040"/><text fill="#FFFFFF" font-family="Calibri,Calibri_MSFontService,sans-serif" font-weight="400" font-size="73" transform="matrix(1 0 0 1 1862.6 1461)">Haptic Band 1</text><rect x="1804" y="1763" width="531" height="136" fill="#404040"/><text fill="#FFFFFF" font-family="Calibri,Calibri_MSFontService,sans-serif" font-weight="400" font-size="73" transform="matrix(1 0 0 1 1857.44 1856)">Haptic Band N</text><path d="M0 0 0.000360892 259.875" stroke="#000000" stroke-width="6.875" stroke-miterlimit="8" stroke-dasharray="6.875 6.875" fill="none" fill-rule="evenodd" transform="matrix(-1 0 0 1 2069.5 1504.5)"/><path d="M1644.5 1251.21 1649.08 1251.21 1649.08 1255.79 1644.5 1255.79ZM1653.67 1251.21 1658.25 1251.21 1658.25 1255.79 1653.67 1255.79ZM1662.83 1251.21 1667.42 1251.21 1667.42 1255.79 1662.83 1255.79ZM1672 1251.21 1676.58 1251.21 1676.58 1255.79 1672 1255.79ZM1681.17 1251.21 1685.75 1251.21 1685.75 1255.79 1681.17 1255.79ZM1690.33 1251.21 1694.92 1251.21 1694.92 1255.79 1690.33 1255.79ZM1699.5 1251.21 1704.08 1251.21 1704.08 1255.79 1699.5 1255.79ZM1708.67 1251.21 1713.25 1251.21 1713.25 1255.79 1708.67 1255.79ZM1717.83 1251.21 1722.42 1251.21 1722.42 1255.79 1717.83 1255.79ZM1727 1251.21 1731.58 1251.21 1731.58 1255.79 1727 1255.79ZM1736.17 1251.21 1740.75 1251.21 1740.75 1255.79 1736.17 1255.79ZM1745.33 1251.21 1749.92 1251.21 1749.92 1255.79 1745.33 1255.79ZM1754.5 1251.21 1759.08 1251.21 1759.08 1255.79 1754.5 1255.79ZM1763.67 1251.21 1768.25 1251.21 1768.25 1255.79 1763.67 1255.79ZM1772.83 1251.21 1777.42 1251.21 1777.42 1255.79 1772.83 1255.79ZM1776.48 1239.75 1803.98 1253.5 1776.48 1267.25Z"/><rect x="2535" y="1368" width="546" height="136" fill="#262626"/><text fill="#FFFFFF" font-family="Calibri,Calibri_MSFontService,sans-serif" font-weight="400" font-size="73" transform="matrix(1 0 0 1 2658.21 1461)">Band data</text><rect x="2535" y="1551" width="546" height="135" fill="#262626"/><text fill="#FFFFFF" font-family="Calibri,Calibri_MSFontService,sans-serif" font-weight="400" font-size="73" transform="matrix(1 0 0 1 2593.26 1643)">Haptic Effect 1</text><rect x="2535" y="1946" width="546" height="135" fill="#262626"/><text fill="#FFFFFF" font-family="Calibri,Calibri_MSFontService,sans-serif" font-weight="400" font-size="73" transform="matrix(1 0 0 1 2588.1 2039)">Haptic Effect N</text><path d="M0 0 0.000360892 259.875" stroke="#000000" stroke-width="6.875" stroke-miterlimit="8" stroke-dasharray="6.875 6.875" fill="none" fill-rule="evenodd" transform="matrix(-1 0 0 1 2808.5 1686.5)"/><path d="M2335.5 1434.21 2340.08 1434.21 2340.08 1438.79 2335.5 1438.79ZM2344.67 1434.21 2349.25 1434.21 2349.25 1438.79 2344.67 1438.79ZM2353.83 1434.21 2358.42 1434.21 2358.42 1438.79 2353.83 1438.79ZM2363 1434.21 2367.58 1434.21 2367.58 1438.79 2363 1438.79ZM2372.17 1434.21 2376.75 1434.21 2376.75 1438.79 2372.17 1438.79ZM2381.33 1434.21 2385.92 1434.21 2385.92 1438.79 2381.33 1438.79ZM2390.5 1434.21 2395.08 1434.21 2395.08 1438.79 2390.5 1438.79ZM2399.67 1434.21 2404.25 1434.21 2404.25 1438.79 2399.67 1438.79ZM2408.83 1434.21 2413.42 1434.21 2413.42 1438.79 2408.83 1438.79ZM2418 1434.21 2422.58 1434.21 2422.58 1438.79 2418 1438.79ZM2427.17 1434.21 2431.75 1434.21 2431.75 1438.79 2427.17 1438.79ZM2436.33 1434.21 2440.92 1434.21 2440.92 1438.79 2436.33 1438.79ZM2445.5 1434.21 2450.08 1434.21 2450.08 1438.79 2445.5 1438.79ZM2454.67 1434.21 2459.25 1434.21 2459.25 1438.79 2454.67 1438.79ZM2463.83 1434.21 2468.42 1434.21 2468.42 1438.79 2463.83 1438.79ZM2473 1434.21 2477.58 1434.21 2477.58 1438.79 2473 1438.79ZM2482.17 1434.21 2486.75 1434.21 2486.75 1438.79 2482.17 1438.79ZM2491.33 1434.21 2495.92 1434.21 2495.92 1438.79 2491.33 1438.79ZM2500.5 1434.21 2505.08 1434.21 2505.08 1438.79 2500.5 1438.79ZM2509.67 1434.21 2513.22 1434.21 2513.22 1438.79 2509.67 1438.79ZM2508.63 1422.75 2536.13 1436.5 2508.63 1450.25Z"/><rect x="3274.5" y="1551.5" width="546" height="135" stroke="#000000" stroke-width="4.58333" stroke-miterlimit="8"/><text fill="#FFFFFF" font-family="Calibri,Calibri_MSFontService,sans-serif" font-weight="400" font-size="73" transform="matrix(1 0 0 1 3388.87 1643)">Effect data</text><rect x="3274.5" y="1733.5" width="546" height="136" stroke="#000000" stroke-width="4.58333" stroke-miterlimit="8"/><text fill="#FFFFFF" font-family="Calibri,Calibri_MSFontService,sans-serif" font-weight="400" font-size="73" transform="matrix(1 0 0 1 3378.25 1826)">Keyframe 1</text><rect x="3274.5" y="2129.5" width="546" height="135" stroke="#000000" stroke-width="4.58333" stroke-miterlimit="8"/><text fill="#FFFFFF" font-family="Calibri,Calibri_MSFontService,sans-serif" font-weight="400" font-size="73" transform="matrix(1 0 0 1 3373.1 2221)">Keyframe N</text><path d="M0 0 0.000360892 259.875" stroke="#000000" stroke-width="6.875" stroke-miterlimit="8" stroke-dasharray="6.875 6.875" fill="none" fill-rule="evenodd" transform="matrix(-1 0 0 1 3547.5 1869.5)"/><path d="M3081.5 1616.21 3086.08 1616.21 3086.08 1620.79 3081.5 1620.79ZM3090.67 1616.21 3095.25 1616.21 3095.25 1620.79 3090.67 1620.79ZM3099.83 1616.21 3104.42 1616.21 3104.42 1620.79 3099.83 1620.79ZM3109 1616.21 3113.58 1616.21 3113.58 1620.79 3109 1620.79ZM3118.17 1616.21 3122.75 1616.21 3122.75 1620.79 3118.17 1620.79ZM3127.33 1616.21 3131.92 1616.21 3131.92 1620.79 3127.33 1620.79ZM3136.5 1616.21 3141.08 1616.21 3141.08 1620.79 3136.5 1620.79ZM3145.67 1616.21 3150.25 1616.21 3150.25 1620.79 3145.67 1620.79ZM3154.83 1616.21 3159.42 1616.21 3159.42 1620.79 3154.83 1620.79ZM3164 1616.21 3168.58 1616.21 3168.58 1620.79 3164 1620.79ZM3173.17 1616.21 3177.75 1616.21 3177.75 1620.79 3173.17 1620.79ZM3182.33 1616.21 3186.92 1616.21 3186.92 1620.79 3182.33 1620.79ZM3191.5 1616.21 3196.08 1616.21 3196.08 1620.79 3191.5 1620.79ZM3200.67 1616.21 3205.25 1616.21 3205.25 1620.79 3200.67 1620.79ZM3209.83 1616.21 3214.42 1616.21 3214.42 1620.79 3209.83 1620.79ZM3219 1616.21 3223.58 1616.21 3223.58 1620.79 3219 1620.79ZM3228.17 1616.21 3232.75 1616.21 3232.75 1620.79 3228.17 1620.79ZM3237.33 1616.21 3241.92 1616.21 3241.92 1620.79 3237.33 1620.79ZM3246.5 1616.21 3251.08 1616.21 3251.08 1620.79 3246.5 1620.79ZM3247.17 1604.75 3274.67 1618.5 3247.17 1632.25Z"/><rect x="1035" y="976" width="609" height="135" fill="#595959"/><text fill="#FFFFFF" font-family="Calibri,Calibri_MSFontService,sans-serif" font-weight="400" font-size="73" transform="matrix(1 0 0 1 1225.75 1069)">Devices</text><rect x="280.5" y="126.5" width="1409" height="2199" stroke="#44546A" stroke-width="4.58333" stroke-miterlimit="8" fill="none"/><rect x="1261.5" y="126.5" width="425" height="83.9999" stroke="#000000" stroke-width="4.58333" stroke-miterlimit="8"/><text fill="#FFFFFF" font-family="Calibri,Calibri_MSFontService,sans-serif" font-weight="400" font-size="55" transform="matrix(1 0 0 1 1346.18 186)">Description</text><rect x="1745.5" y="125.5" width="2152" height="2203" stroke="#44546A" stroke-width="4.58333" stroke-miterlimit="8" fill="none"/><rect x="3472.5" y="125.5" width="425" height="83.9999" stroke="#000000" stroke-width="4.58333" stroke-miterlimit="8"/><text fill="#FFFFFF" font-family="Calibri,Calibri_MSFontService,sans-serif" font-weight="400" font-size="55" transform="matrix(1 0 0 1 3582.99 185)">Encoding</text><rect x="1035" y="782" width="609" height="135" fill="#595959"/><text fill="#FFFFFF" font-family="Calibri,Calibri_MSFontService,sans-serif" font-weight="400" font-size="73" transform="matrix(1 0 0 1 1136.6 874)">Effect Library</text></g></svg>