<svg width="3009" height="1709" xmlns="http://www.w3.org/2000/svg" xmlns:xlink="http://www.w3.org/1999/xlink" xml:space="preserve" overflow="hidden"><g transform="translate(6 -478)"><text font-family="Calibri,Calibri_MSFontService,sans-serif" font-weight="400" font-size="55" transform="matrix(1 0 0 1 42.012 775)">.ohm</text><rect x="335.5" y="661.5" width="588" height="184" stroke="#000000" stroke-width="4.58333" stroke-miterlimit="8" fill="#FFFFFF"/><text font-family="Calibri,Calibri_MSFontService,sans-serif" font-weight="400" font-size="55" transform="matrix(1 0 0 1 401.401 771)">Metadata extraction</text><rect x="1911.5" y="1190.5" width="327" height="104" stroke="#000000" stroke-width="4.58333" stroke-miterlimit="8" fill="#FFFFFF"/><text font-family="Calibri,Calibri_MSFontService,sans-serif" font-weight="400" font-size="55" transform="matrix(1 0 0 1 1951.8 1260)">Formatting</text><rect x="745.5" y="1192.5" width="468" height="104" stroke="#000000" stroke-width="4.58333" stroke-miterlimit="8" fill="#FFFFFF"/><text font-family="Calibri,Calibri_MSFontService,sans-serif" font-weight="400" font-size="55" transform="matrix(1 0 0 1 804.844 1262)">Format analysis</text><rect x="1407.5" y="1192.5" width="364" height="104" stroke="#000000" stroke-width="4.58333" stroke-miterlimit="8" fill="#FFFFFF"/><text font-family="Calibri,Calibri_MSFontService,sans-serif" font-weight="400" font-size="55" transform="matrix(1 0 0 1 1456.17 1262)">Transcoding</text><text font-family="Calibri,Calibri_MSFontService,sans-serif" font-weight="400" font-size="55" transform="matrix(1 0 0 1 82.5229 1190)">.</text><text font-family="Calibri,Calibri_MSFontService,sans-serif" font-weight="400" font-size="55" transform="matrix(1 0 0 1 96.2729 1190)">ivs</text><text font-family="Calibri,Calibri_MSFontService,sans-serif" font-weight="400" font-size="55" transform="matrix(1 0 0 1 70.2396 1329)">.</text><text font-family="Calibri,Calibri_MSFontService,sans-serif" font-weight="400" font-size="55" transform="matrix(1 0 0 1 83.9896 1329)">hjif</text><path d="M431.5 1241.5 498.5 1177.5 565.5 1241.5 498.5 1305.5Z" stroke="#787878" stroke-width="4.58333" stroke-miterlimit="8" fill="#A5A5A5" fill-rule="evenodd"/><path d="M431.5 1657.5 498.5 1593.5 565.5 1657.5 498.5 1721.5Z" stroke="#787878" stroke-width="4.58333" stroke-miterlimit="8" fill="#A5A5A5" fill-rule="evenodd"/><text font-family="Calibri,Calibri_MSFontService,sans-serif" font-weight="400" font-size="55" transform="matrix(1 0 0 1 52.673 1681)">.wav</text><rect x="1149" y="686" width="258" height="49.9998" fill="#EDEDED"/><text font-family="Calibri,Calibri_MSFontService,sans-serif" font-weight="400" font-size="46" transform="matrix(1 0 0 1 1187.18 726)">Metadata</text><text font-family="Calibri,Calibri_MSFontService,sans-serif" font-weight="400" font-size="55" transform="matrix(1 0 0 1 2805.22 1255)">.</text><text font-family="Calibri,Calibri_MSFontService,sans-serif" font-weight="400" font-size="55" transform="matrix(1 0 0 1 2818.97 1255)">hjif</text><rect x="641" y="878" width="81.9998" height="303" fill="#EDEDED"/><text font-family="Calibri,Calibri_MSFontService,sans-serif" font-weight="400" font-size="50" transform="matrix(6.12323e-17 1 -1 6.12323e-17 665.254 930)">Metadata</text><rect x="2682" y="991" width="312" height="182" fill="#EDEDED"/><text font-family="Calibri,Calibri_MSFontService,sans-serif" font-weight="400" font-size="50" transform="matrix(1 0 0 1 2796.48 1038)">HJIF </text><text font-family="Calibri,Calibri_MSFontService,sans-serif" font-weight="400" font-size="50" transform="matrix(1 0 0 1 2715.4 1099)">Interchange </text><text font-family="Calibri,Calibri_MSFontService,sans-serif" font-weight="400" font-size="50" transform="matrix(1 0 0 1 2767.84 1159)">format</text><path d="M0.0351246-2.2914 113.225-0.556325 113.155 4.02647-0.0351246 2.2914ZM108.818-12.0836 136.104 2.08632 108.396 15.4132Z" transform="matrix(1 0 0 -1 187.5 755.586)"/><path d="M191.5 1175.21 313.794 1175.21 313.794 1241.6 311.502 1239.31 408.588 1239.31 408.588 1243.89 309.211 1243.89 309.211 1177.5 311.502 1179.79 191.5 1179.79ZM404.005 1227.85 431.505 1241.6 404.005 1255.35Z"/><path d="M0-2.29167 123.479-2.29167 123.479 70.033 121.187 67.7413 219.458 67.7413 219.458 72.3246 118.896 72.3246 118.896 0 121.187 2.29167 0 2.29167ZM214.875 56.283 242.375 70.033 214.875 83.783Z" transform="matrix(1 0 0 -1 188.5 1311.53)"/><path d="M632.117 845.5 632.117 1013.65 498.5 1013.65 500.792 1011.35 500.792 1154.29 496.208 1154.29 496.208 1009.06 629.825 1009.06 627.534 1011.35 627.534 845.5ZM512.25 1149.71 498.5 1177.21 484.75 1149.71Z"/><path d="M632.117 845.5 632.117 1441.51 498.5 1441.51 500.792 1439.22 500.792 1570.03 496.208 1570.03 496.208 1436.93 629.825 1436.93 627.533 1439.22 627.533 845.5ZM512.25 1565.44 498.5 1592.94 484.75 1565.44Z"/><path d="M1213.5 1242.21 1385.3 1242.21 1385.3 1246.79 1213.5 1246.79ZM1380.72 1230.75 1408.22 1244.5 1380.72 1258.25Z"/><path d="M0.0211091-2.29157 511.177 2.41702 511.135 7.00016-0.0211091 2.29157ZM506.7-9.08304 534.072 4.91968 506.447 18.4158Z" transform="matrix(1 0 0 -1 2238.5 1243.42)"/><path d="M0.0662022-2.29071 220.803 4.08864 220.67 8.67006-0.0662022 2.29071ZM216.552-7.49732 243.644 7.04137 215.758 19.9912Z" transform="matrix(1 0 0 -1 187.5 1664.54)"/><path d="M4.58598e-06-2.29167 157.425-2.29135 157.425 2.29198-4.58598e-06 2.29167ZM152.842-13.7497 180.342 0.000360892 152.842 13.7503Z" transform="matrix(1 0 0 -1 565.5 1657.5)"/><path d="M923.5 751.208 2077.21 751.208 2077.21 1167.86 2072.62 1167.86 2072.62 753.5 2074.92 755.792 923.5 755.792ZM2088.67 1163.27 2074.92 1190.77 2061.17 1163.27Z"/><path d="M0-2.29167 199.534-2.29167 199.534 134.812 194.951 134.812 194.951 0 197.242 2.29167 0 2.29167ZM210.992 130.229 197.242 157.729 183.492 130.229Z" transform="matrix(1 0 0 -1 1877.5 1452.23)"/><path d="M661.575 1239.21 722.588 1241.2 722.438 1245.78 661.425 1243.79ZM718.381 1229.6 745.417 1244.24 717.483 1257.09Z"/><path d="M599.545 1239.87C600.459 1223.33 614.835 1210.64 631.655 1211.54 647.833 1212.41 660.5 1225.56 660.5 1241.5" stroke="#000000" stroke-width="4.58333" stroke-miterlimit="8" fill="none" fill-rule="evenodd"/><path d="M0 0 34.8499 1.60994" stroke="#000000" stroke-width="4.58333" stroke-miterlimit="8" fill="none" fill-rule="evenodd" transform="matrix(1 0 0 -1 565.5 1241.11)"/><path d="M0.0219727-2.29156 116.969-1.17021 116.925 3.41291-0.0219727 2.29156ZM112.496-12.672 139.862 1.34108 112.232 14.8268Z" transform="matrix(1 0 0 -1 1771.5 1243.84)"/><rect x="745.5" y="1578.5" width="468" height="158" stroke="#000000" stroke-width="4.58333" stroke-miterlimit="8" fill="#FFFFFF"/><text font-family="Calibri,Calibri_MSFontService,sans-serif" font-weight="400" font-size="55" transform="matrix(1 0 0 1 789.147 1642)">Frequency bands </text><text font-family="Calibri,Calibri_MSFontService,sans-serif" font-weight="400" font-size="55" transform="matrix(1 0 0 1 811.926 1708)">decomposition</text><rect x="1407.5" y="1361.5" width="470" height="182" stroke="#000000" stroke-width="4.58333" stroke-miterlimit="8" fill="#FFFFFF"/><text font-family="Calibri,Calibri_MSFontService,sans-serif" font-weight="400" font-size="55" transform="matrix(1 0 0 1 1536.24 1437)">Keyframe </text><text font-family="Calibri,Calibri_MSFontService,sans-serif" font-weight="400" font-size="55" transform="matrix(1 0 0 1 1529.45 1503)">extraction</text><rect x="1407.5" y="1817.5" width="470" height="182" stroke="#000000" stroke-width="4.58333" stroke-miterlimit="8" fill="#FFFFFF"/><text font-family="Calibri,Calibri_MSFontService,sans-serif" font-weight="400" font-size="55" transform="matrix(1 0 0 1 1442.96 1926)">Wavelet</text><text font-family="Calibri,Calibri_MSFontService,sans-serif" font-weight="400" font-size="55" transform="matrix(1 0 0 1 1637.54 1926)">encoding</text><path d="M0-2.29167 99.651-2.29167 99.651 204.637 97.3593 202.346 171.802 202.346 171.802 206.929 95.0676 206.929 95.0676 0 97.3593 2.29167 0 2.29167ZM167.218 190.887 194.718 204.637 167.218 218.387Z" transform="matrix(1 0 0 -1 1213.5 1657.14)"/><path d="M1206.5 1718.21 1309.41 1718.21 1309.41 1908.43 1307.12 1906.14 1384.82 1906.14 1384.82 1910.72 1304.83 1910.72 1304.83 1720.5 1307.12 1722.79 1206.5 1722.79ZM1380.24 1894.68 1407.74 1908.43 1380.24 1922.18Z"/><path d="M0-2.29167 199.534-2.29167 199.534 590.806 194.951 590.806 194.951 0 197.242 2.29167 0 2.29167ZM210.992 586.223 197.242 613.723 183.492 586.223Z" transform="matrix(1 0 0 -1 1877.5 1908.22)"/><rect x="25.4999" y="501.5" width="2602" height="1682" stroke="#44546A" stroke-width="6.875" stroke-miterlimit="8" stroke-dasharray="27.5 20.625" fill="none"/><rect x="25.4999" y="500.5" width="390" height="72.9999" stroke="#000000" stroke-width="4.58333" stroke-miterlimit="8"/><text fill="#FFFFFF" font-family="Calibri,Calibri_MSFontService,sans-serif" font-weight="400" font-size="64" transform="matrix(1 0 0 1 112.802 558)">Encoder</text><text font-family="Calibri,Calibri_MSFontService,sans-serif" font-weight="400" font-size="55" transform="matrix(1 0 0 1 27.1162 1262)">.ahap</text><path d="M0.0287518-2.29149 223.466 0.512041 223.409 5.09501-0.0287518 2.29149ZM219.027-11.0029 246.352 3.09104 218.682 16.4949Z" transform="matrix(1 0 0 -1 184.5 1244.59)"/><path d="M1600.5 1653.5C1600.5 1630.3 1619.3 1611.5 1642.5 1611.5 1665.7 1611.5 1684.5 1630.3 1684.5 1653.5 1684.5 1676.7 1665.7 1695.5 1642.5 1695.5 1619.3 1695.5 1600.5 1676.7 1600.5 1653.5Z" stroke="#787878" stroke-width="4.58333" stroke-miterlimit="8" fill="#A5A5A5" fill-rule="evenodd"/><path d="M0.0236706-2.29154 364.884 1.4773 364.837 6.06039-0.0236706 2.29154ZM360.419-10.0278 387.776 4.00554 360.135 17.4708Z" transform="matrix(1 0 0 -1 1213.5 1657.51)"/><path d="M1644.79 1543.5 1644.79 1588.02 1640.21 1588.02 1640.21 1543.5ZM1656.25 1583.43 1642.5 1610.93 1628.75 1583.43Z"/><path d="M1644.79 1695.5 1644.79 1794.75 1640.21 1794.75 1640.21 1695.5ZM1656.25 1790.16 1642.5 1817.66 1628.75 1790.16Z"/><text font-family="Calibri,Calibri_MSFontService,sans-serif" font-weight="400" font-size="83" transform="matrix(1 0 0 1 1540.84 1714)">+</text><text font-family="Calibri,Calibri_MSFontService,sans-serif" font-weight="400" font-size="83" transform="matrix(1 0 0 1 1666.63 1583)">-</text><path d="M0 0 0.000360892 83.8985" stroke="#000000" stroke-width="2.29167" stroke-miterlimit="8" fill="none" fill-rule="evenodd" transform="matrix(1 0 0 -1 1642 1694.9)"/><path d="M0 0 83.8985 0.000360892" stroke="#000000" stroke-width="2.29167" stroke-miterlimit="8" fill="none" fill-rule="evenodd" transform="matrix(-1 0 0 1 1683.9 1653)"/><rect x="2222.5" y="1549.5" width="355" height="200" stroke="#000000" stroke-width="4.58333" stroke-miterlimit="8" fill="#FFFFFF"/><text font-family="Calibri,Calibri_MSFontService,sans-serif" font-weight="400" font-size="50" transform="matrix(1 0 0 1 2277.73 1605)">Binarization</text><text font-family="Calibri,Calibri_MSFontService,sans-serif" font-weight="400" font-size="50" transform="matrix(1 0 0 1 2382.3 1666)">&amp;</text><text font-family="Calibri,Calibri_MSFontService,sans-serif" font-weight="400" font-size="50" transform="matrix(1 0 0 1 2263.41 1726)">Packetization</text><path d="M0.00300185-2.29166 171.873-2.06653 171.867 2.5168-0.00300185 2.29166ZM167.305-13.5309 194.787 0.255151 167.269 13.9691Z" transform="matrix(1 0 0 -1 2577.5 1649.76)"/><rect x="2682" y="1712" width="312" height="182" fill="#EDEDED"/><text font-family="Calibri,Calibri_MSFontService,sans-serif" font-weight="400" font-size="50" transform="matrix(1 0 0 1 2782.81 1759)">MIHS </text><text font-family="Calibri,Calibri_MSFontService,sans-serif" font-weight="400" font-size="50" transform="matrix(1 0 0 1 2717.23 1820)">Distribution </text><text font-family="Calibri,Calibri_MSFontService,sans-serif" font-weight="400" font-size="50" transform="matrix(1 0 0 1 2763.91 1880)">Format</text><path d="M2238.5 1240.21 2402.12 1240.21 2402.12 1525.93 2397.54 1525.93 2397.54 1242.5 2399.83 1244.79 2238.5 1244.79ZM2413.58 1521.34 2399.83 1548.84 2386.08 1521.34Z"/><text font-family="Calibri,Calibri_MSFontService,sans-serif" font-weight="400" font-size="55" transform="matrix(1 0 0 1 2805.22 1666)">.</text><text font-family="Calibri,Calibri_MSFontService,sans-serif" font-weight="400" font-size="55" transform="matrix(1 0 0 1 2818.97 1666)">hmpg</text><rect x="1101" y="686" width="306" height="66" fill="#EDEDED"/><text font-family="Calibri,Calibri_MSFontService,sans-serif" font-weight="400" font-size="50" transform="matrix(1 0 0 1 1154.36 736)">Metadata</text><path d="M632.117 845.5 632.117 1441.51 498.5 1441.51 500.792 1439.22 500.792 1570.03 496.208 1570.03 496.208 1436.93 629.825 1436.93 627.533 1439.22 627.533 845.5ZM512.25 1565.44 498.5 1592.94 484.75 1565.44Z"/></g></svg>